<?xml version="1.0" encoding="utf-8"?>
<!-- Generator: Adobe Illustrator 17.1.0, SVG Export Plug-In . SVG Version: 6.00 Build 0)  -->
<!DOCTYPE svg PUBLIC "-//W3C//DTD SVG 1.1//EN" "http://www.w3.org/Graphics/SVG/1.1/DTD/svg11.dtd">
<svg version="1.1" id="Layer_1" xmlns="http://www.w3.org/2000/svg" xmlns:xlink="http://www.w3.org/1999/xlink" width="2500" height="2500"
	 viewBox="0 0 194.3 48.3" enable-background="new 0 0 194.3 48.3" xml:space="preserve">
<g>
	<path fill="#EF4538" d="M9.1,32.1l11.6,0l1.6,0c-0.4,0-2.1-1.1-2.3-1.2c-0.3-0.2-0.4-0.4-0.4-0.7l0-0.4l1.5-8.2l2.7,8.6
		c0.1,0.6,0.5,1,1.2,1.5c0.5,0.3,1.1,0.5,1.8,0.5l5.6,0c1.7,0,2.7-0.7,2.9-2l0.9-4.8h-1.2c-0.4,0-0.8-0.1-1.1-0.4
		c-0.3-0.2-0.6-0.5-0.8-0.8l-1.6-3.9c1.7-0.4,3-1.2,3.9-2.4c0.9-1.2,1.6-3,2.1-5.6l0.2-1.7c0-0.4,0.1-0.9,0-1.4
		C37.6,5.1,35.4,3,31,3.1l-6.8,0l-12.6,0l-2.3,0c0.3,0,2.7,1.1,3,1.4c0.3,0.3,0.4,0.6,0.3,0.9L7.7,30c-0.1,0.3-0.1,0.5-0.1,0.7
		c0,0.5,0.1,0.8,0.4,1.1C8.3,32,8.6,32.1,9.1,32.1z M23.7,9.6h0.7l0.9,0c0.7,0,1,0.4,1,1.2c0,0.2,0,0.5-0.1,0.8
		c-0.1,0.3-0.1,0.6-0.1,0.9c-0.3,1.4-0.8,2.2-1.6,2.4c-0.1,0-0.2,0-0.3,0h-1.7L23.7,9.6z"/>
	<path fill="#EF4538" d="M103.3,5l3.1,25c0,0.6,0.3,1.1,0.8,1.4c0.4,0.3,0.8,0.4,1.3,0.4l8.4,0l4.3-10.1l1.4,8.3
		c0.2,1.3,1.1,1.9,2.4,1.9l7.5,0l7.3-17l4.2-9.9l0.1-0.7c0-0.4-0.1-0.7-0.4-1c-0.3-0.3-0.7-0.4-1.2-0.4l-3.1,0l-6,0h-1.2
		c0.3,0,1.5,1.1,1.7,1.5c0.2,0.3,0.3,0.6,0.3,0.9l-0.1,0.4l-3.2,9l-1.1-11.8l-9.6,0l-4.6,11.8l-0.5-10.1c0-0.4-0.2-0.8-0.6-1.2
		c-0.4-0.3-0.8-0.5-1.1-0.5l-11.3,0l-1,0C101.8,2.9,103.2,4.3,103.3,5z"/>
	<path fill="#EF4538" d="M165,5l4.5,17l-1.5,7.8c0,0.1-0.1,0.3-0.1,0.5c0,1,0.6,1.5,1.7,1.5l10.6,0l1.9,0c-0.3,0-2.4-1.1-2.6-1.3
		c-0.3-0.2-0.4-0.4-0.4-0.8l0.1-0.8l1.3-6.5l10-17.2c0.1-0.3,0.2-0.5,0.2-0.9c0-0.4-0.2-0.8-0.4-1.1c-0.3-0.3-0.6-0.5-1-0.5l-9,0
		l-1.3,0c0.3,0,1.7,1.1,2,1.3c0.3,0.3,0.4,0.5,0.4,0.8c0,0.3,0,0.6,0,0.7l-3.6,6.3l-1.1-7.2c-0.1-0.6-0.4-1.1-1-1.4
		c-0.6-0.4-1.2-0.6-2-0.6l-9.4,0h-0.6l-1.5,0c0.6,0,1.5,0.6,2.2,1.3C164.7,4.4,165,4.8,165,5z"/>
	<path fill="#EF4538" d="M147.5,5c0,0.3,0,0.5-0.1,0.7l-11.6,24c-0.1,0.3-0.2,0.5-0.2,0.8c0,0.9,0.6,1.4,1.8,1.4l3,0l6.2,0h1.8
		c-0.3,0-2.2-1.1-2.4-1.2c-0.3-0.2-0.4-0.4-0.4-0.7c0-0.2,0.1-0.3,0.1-0.3c0-0.1,0-0.1,0-0.2l1.6-3.5l3.6,0l1.2,0l0.5,4.3
		c0.1,0.6,0.3,1,0.7,1.3c0.4,0.2,0.9,0.3,1.6,0.3l10.5,0h0.3l1.8,0c-0.3,0-1.4-0.6-2.1-1c-0.3-0.2-0.6-0.3-0.7-0.4
		c-0.4-0.3-0.6-0.7-0.6-1l-2.7-24.5c0-0.7-0.3-1.2-0.7-1.5c-0.5-0.3-1-0.5-1.7-0.5l-8.8,0l-3.7,0l-1.2,0c0.3,0,1.6,1.1,1.9,1.4
		C147.3,4.5,147.5,4.8,147.5,5z M150.5,17.7l0.8-2.1l0.6,5.3l-1.3,0l-1.3,0L150.5,17.7z"/>
	<path fill="#EF4538" d="M38.8,25.3c0.1,2.2,0.8,3.9,2,5c1.2,1.1,3.1,1.7,5.6,1.7l9.6,0c2.7,0,4.8-0.6,6.2-1.8
		c1.6-1.3,2.7-3.6,3.4-6.8L69.3,5l0.1-0.6c0-0.5-0.1-0.8-0.3-1C68.8,3.1,68.4,3,68,3L56.3,3L55,3c0.3,0,1.7,1.1,2,1.4
		c0.3,0.3,0.4,0.6,0.4,0.9l-3.6,18c-0.1,0.6-0.3,1-0.5,1.1c-0.2,0.2-0.6,0.3-1.1,0.3c-1,0-1.5-0.3-1.5-0.9c0-0.1,0-0.2,0.1-0.5
		L54.4,5l0-0.6c0-0.5-0.1-0.8-0.3-1C53.8,3.1,53.5,3,53,3L41.3,3l-2.1,0c0.3,0,2.5,1.1,2.8,1.4c0.3,0.3,0.4,0.6,0.3,0.9l-3.1,15.3
		C39,22.4,38.8,24,38.8,25.3z"/>
	<path fill="#EF4538" d="M69.3,32l9.4,0l1.9,0c-0.4,0-2.4-1-2.6-1.2c-0.3-0.2-0.4-0.4-0.4-0.7l0.1-0.7l2.1-9.4l4.6,10.4
		c0.2,0.6,0.6,1,1.2,1.2c0.6,0.2,1.3,0.3,2.1,0.3l7.7,0l5.4-26.4l0.1-1.1c0-0.4-0.1-0.8-0.4-1.1c-0.2-0.3-0.6-0.5-1-0.5l-9.4,0h-1.6
		c0.3,0,2,1.1,2.3,1.3c0.3,0.3,0.5,0.6,0.5,0.9c0,0.4,0,0.7-0.1,0.8l-1.7,9.1L84.4,4.5c-0.1-0.4-0.4-0.7-0.9-1
		c-0.4-0.3-0.8-0.5-1.2-0.5L71.7,3l-1.9,0c0.3,0,2.3,1.1,2.6,1.4c0.3,0.3,0.4,0.6,0.4,0.9l-4.9,24.6c-0.1,0.3-0.1,0.5-0.1,0.7
		c0,0.5,0.2,0.8,0.4,1.1C68.4,31.9,68.8,32,69.3,32z"/>
	<path fill="#EF4538" d="M22.4,46.7l166.2-13.3L3.8,33.8c21.1,1.7,26.7,3.8,27.9,5.8C33.8,42.9,22.4,46.7,22.4,46.7z"/>
</g>
</svg>
